<svg id="Layer_1" data-name="Layer 1" xmlns="http://www.w3.org/2000/svg" viewBox="0 0 499.34 142.85"><defs><style>.cls-1{fill:#231f20;}.cls-2{fill:none;stroke:#231f20;stroke-miterlimit:10;stroke-width:2px;}</style></defs><path class="cls-1" d="M170.74,58H156.52L153.4,64.9h-1.92l11.28-24.67h1.78L175.82,64.9H173.9Zm-.66-1.52L163.63,42.2l-6.41,14.24Z"/><path class="cls-1" d="M180.28,40.23H190c7.78,0,13,5.15,13,12.33S197.76,64.9,190,64.9h-9.7Zm9.56,23.05c6.94,0,11.39-4.44,11.39-10.72s-4.45-10.71-11.39-10.71h-7.78V63.28Z"/><path class="cls-1" d="M228.07,40.23,217.14,64.9h-1.79L204.42,40.23h2l9.92,22.34,9.91-22.34Z"/><path class="cls-1" d="M246.47,58H232.24l-3.12,6.94H227.2l11.28-24.67h1.78L251.54,64.9h-1.92Zm-.67-1.52L239.35,42.2l-6.41,14.24Z"/><path class="cls-1" d="M276,40.23V64.9H274.5L257.79,43.47V64.9H256V40.23h1.51l16.67,21.43V40.23Z"/><path class="cls-1" d="M282.18,52.56a12.29,12.29,0,0,1,12.71-12.51,11.64,11.64,0,0,1,8.72,3.42l-1.12,1.17A10.23,10.23,0,0,0,295,41.71a10.86,10.86,0,1,0,0,21.71,10.26,10.26,0,0,0,7.53-3l1.12,1.16a11.66,11.66,0,0,1-8.72,3.45A12.28,12.28,0,0,1,282.18,52.56Z"/><path class="cls-1" d="M326.53,63.28V64.9H309.61V40.23H326v1.62H311.4v9.73h13.06v1.58H311.4V63.28Z"/><path class="cls-1" d="M153.23,94.85a12.28,12.28,0,0,1,12.71-12.51,11.68,11.68,0,0,1,8.73,3.42l-1.12,1.16A10.24,10.24,0,0,0,166,84a10.85,10.85,0,1,0,0,21.7,10.28,10.28,0,0,0,7.54-3l1.12,1.17a11.7,11.7,0,0,1-8.73,3.45A12.28,12.28,0,0,1,153.23,94.85Z"/><path class="cls-1" d="M197.69,107.18l-5.85-8.24a18.13,18.13,0,0,1-2.38.17h-7v8.07h-1.79V82.51h8.8c6.16,0,9.88,3.11,9.88,8.32a7.57,7.57,0,0,1-5.75,7.72l6.13,8.63Zm-8.23-9.65c5.25,0,8-2.47,8-6.7s-2.8-6.69-8-6.69h-7V97.53Z"/><path class="cls-1" d="M213.11,98.69v8.49h-1.79V98.69l-9.88-16.18h2L212.27,97l8.86-14.52H223Z"/><path class="cls-1" d="M245.52,90.83c0,5.18-3.71,8.28-9.88,8.28h-7v8.07h-1.78V82.51h8.79C241.81,82.51,245.52,85.62,245.52,90.83Zm-1.82,0c0-4.26-2.8-6.69-8.06-6.69h-7V97.49h7C240.9,97.49,243.7,95.06,243.7,90.83Z"/><path class="cls-1" d="M255.4,84.14h-8.82V82.51H266v1.63h-8.83v23H255.4Z"/><path class="cls-1" d="M267.74,94.85c0-7.15,5.43-12.51,12.75-12.51s12.75,5.32,12.75,12.51-5.46,12.51-12.75,12.51S267.74,102,267.74,94.85Zm23.68,0a10.95,10.95,0,1,0-10.93,10.85A10.61,10.61,0,0,0,291.42,94.85Z"/><path class="cls-1" d="M323.63,100.24H309.4l-3.12,6.94h-1.92l11.28-24.67h1.78l11.28,24.67h-1.92ZM323,98.73l-6.45-14.24L310.1,98.73Z"/><path class="cls-1" d="M330.46,94.85c0-7.19,5.43-12.51,12.72-12.51a11.64,11.64,0,0,1,8.72,3.42l-1.12,1.16A10.22,10.22,0,0,0,343.25,84a10.85,10.85,0,1,0,0,21.7,10.26,10.26,0,0,0,7.53-3l1.12,1.17a11.66,11.66,0,0,1-8.72,3.45C335.89,107.36,330.46,102,330.46,94.85Z"/><path class="cls-1" d="M372.4,100.24H358.18l-3.12,6.94h-1.93l11.28-24.67h1.79l11.28,24.67h-1.93Zm-.66-1.51-6.45-14.24-6.41,14.24Z"/><path class="cls-1" d="M381.94,82.51h9.7c7.78,0,13,5.15,13,12.34s-5.25,12.33-13,12.33h-9.7Zm9.56,23c6.94,0,11.38-4.44,11.38-10.71s-4.44-10.71-11.38-10.71h-7.78v21.42Z"/><path class="cls-1" d="M427.8,105.56v1.62H410.88V82.51h16.39v1.63h-14.6v9.72h13.06v1.59H412.67v10.11Z"/><path class="cls-1" d="M457.51,107.18l0-21.11-10.27,17.84h-.87L436.07,86.14v21h-1.75V82.51h1.51l11,19.07,11-19.07h1.47l0,24.67Z"/><path class="cls-1" d="M475.39,98.69v8.49H473.6V98.69l-9.88-16.18h2L474.55,97l8.86-14.52h1.85Z"/><circle class="cls-2" cx="71.01" cy="71.43" r="66.32"/><circle class="cls-2" cx="70.43" cy="71.78" r="57.67"/><path class="cls-2" d="M66.4,102.06h-.09A9.89,9.89,0,0,1,58,97.43L45.74,77.94a4.79,4.79,0,0,0-6.41-1.59,9.62,9.62,0,0,1-10.75-.92A9.78,9.78,0,0,1,26.41,63l7.05-12.47a10.18,10.18,0,0,1,17.48-.41L63.87,70.67a3,3,0,0,0,5.15,0L82,50.27a9.46,9.46,0,0,1,8-4.4h.07a9.61,9.61,0,0,1,8,4.34l18.6,28.32a9.81,9.81,0,0,1-1.46,12.69,9.61,9.61,0,0,1-14.44-1.89L93.6,78.39a4,4,0,0,0-6.75,0l-12.08,19a.86.86,0,0,1-.07.1A9.86,9.86,0,0,1,66.4,102.06Z"/></svg>