<?xml version="1.0" encoding="utf-8"?>
<!-- Generator: Adobe Illustrator 25.4.1, SVG Export Plug-In . SVG Version: 6.00 Build 0)  -->
<svg version="1.1" id="Layer_1" xmlns="http://www.w3.org/2000/svg" xmlns:xlink="http://www.w3.org/1999/xlink" x="0px" y="0px"
	 viewBox="0 0 1625 1080" style="enable-background:new 0 0 1625 1080;" xml:space="preserve">
<style type="text/css">
	.st0{clip-path:url(#SVGID_00000036951428672700823280000015828545161057565115_);}
	.st1{fill:#FB03FE;}
	.st2{fill:#03FEBA;}
	.st3{fill:#7BFE25;}
	.st4{fill:#FBFE24;}
	.st5{fill:#D6ED48;}
	.st6{fill:#FFFFFF;}
	.st7{fill:#7AFF22;}
	.st8{fill:#00FFBA;}
	.st9{fill:#FC00FF;}
</style>
<g id="coin_x5F_allocation.psb_00000124869681830898298910000017309547234525510328_">
	<defs>
		<rect id="SVGID_1_" x="0.32" y="1.52" width="1625.14" height="1076.42"/>
	</defs>
	<clipPath id="SVGID_00000176721510837345999850000016129529060244368046_">
		<use xlink:href="#SVGID_1_"  style="overflow:visible;"/>
	</clipPath>
	<g style="clip-path:url(#SVGID_00000176721510837345999850000016129529060244368046_);">
		<path class="st1" d="M1095.42,551.97c-15.41-0.14-30.81-0.27-46.22-0.44c-2.67-0.03-5.4,0.39-8.42-0.74
			c-0.46-5.35-0.93-10.84-1.4-16.33c0.79-2.32,0.47-4.6-0.22-6.88c0.15-4.74,0.56-9.49-0.89-14.12c0.59-1.19,0.39-2.29-0.37-3.33
			c0.15-3.2,0.55-6.42-0.79-9.49c0.55-1.2,0.38-2.3-0.44-3.31c0.39-2.47,0.18-4.86-0.79-7.18c0.7-1.2,0.5-2.3-0.42-3.3
			c0.35-1.71,0.23-3.36-0.71-4.88c0.5-1.55,0.52-3.05-0.5-4.43c0.32-1.73-0.09-3.35-0.79-4.92c0.44-1.2,0.38-2.27-0.78-3.06
			c-1.41-15.91-5.45-31.29-9.64-46.6c-24.8-90.5-71.46-167.96-140.08-231.89C812.93,125.82,730.65,84,636.4,67.21
			c-105.76-18.84-207.49-5.15-304.03,42.61c-95.47,47.23-168.02,118.35-218.15,212.27c-30.46,57.08-48.47,117.97-54.5,182.38
			c-9.16,97.8,9.31,190.15,54.96,277.09c0.8,1.53,1.54,3.08,2.62,5.24c-6.6,3.87-13.02,7.64-20.6,12.09
			c95.26,160.81,234.73,250.38,420.81,267.44c0.95,4.83,0.95,4.83-2.14,9.55c-188.48-17.64-330.39-108.75-427.13-272.26
			c-5.91,3.23-12.15,6.64-18.26,9.99c-2.43-0.63-2.9-2.73-3.77-4.37C37.53,755.05,18.18,697.79,8.62,637.17
			c-7.74-49.09-8.46-98.41-3.16-147.57c9.25-85.8,37.99-164.96,85.19-237.35c32.98-50.59,73.16-94.56,120.62-131.88
			c56.76-44.63,119.93-76.7,189.36-96.47c1.1-0.31,2.14-0.84,3.21-1.27c0.85,0.41,1.57,0.21,2.2-0.45
			c10.54-2.55,21.08-5.1,31.62-7.65c0.86,0.43,1.58,0.18,2.23-0.45c1.29,0.24,2.51,0.16,3.6-0.66c0.86,0.43,1.59,0.18,2.25-0.44
			c3.67,0.17,7.12-0.86,10.58-1.87c0.87,0.44,1.61,0.25,2.25-0.45c1.65,0.18,3.26,0.14,4.75-0.72c1.24,0.45,2.36,0.25,3.36-0.61
			c2.06,0.21,4.09,0.25,5.99-0.78c0.82,0.46,1.55,0.33,2.2-0.33c2.05,0.26,4.07,0.22,5.96-0.77c1.2,0.55,2.33,0.42,3.38-0.38
			c2.05,0.32,4.07,0.31,5.95-0.74c1.2,0.55,2.34,0.39,3.41-0.33c2.8,0.27,5.58,0.39,8.25-0.75c1.97,0.61,3.87,0.34,5.72-0.46
			c3.55,0.3,7.1,0.52,10.55-0.69c2.51,0.04,5.02,0.24,7.52,0.1c21.57-1.18,43.13-0.68,64.62,1.03
			c67.45,5.38,131.97,21.99,193.09,51.26c74.41,35.63,137.65,85.45,189.74,149.4c38.61,47.4,68.33,99.89,89.38,157.27
			c14.83,40.42,24.3,82.1,29.32,124.88c2.41,20.49,3.01,41.03,3.64,61.6C1095.42,550.42,1095.42,551.19,1095.42,551.97z"/>
		<path class="st2" d="M135.47,551.52c-7.64,0-14.91,0-23.55,0c4.55-146.92,62.86-265.59,180.46-353.07
			C431.36,95.07,619.67,86.25,765.7,172.92c142.45,84.54,213.28,212.66,220.15,377.18c-5.64,1.7-49.86,1.92-56.01,0.69
			c-3.23-121.78-50.63-222.5-146.12-298.84c-71.43-57.1-153.91-84.19-245.37-81.5c-102.68,3.01-190.48,41.82-262.07,115.26
			C204.66,359.17,169.71,448.4,167.8,550.87c-3.9,1.24-7.59,0.5-11.21,0.63c-3.45,0.13-6.91,0.03-11.46,0.03
			c1.7,105.43,36.56,197.22,107.74,274.19c71.27,77.06,160.22,119.18,264.67,128.7c0.92,3.06,0.77,5.89,0.02,9.73
			c-107.16-9.69-198.29-52.54-271.35-131.48C173.21,753.8,137,659.66,135.47,551.52z"/>
		<path class="st3" d="M254.87,622.86c-7.85,1.53-15.02,2.92-22.15,4.31c-26.97-105.33,2.57-236.58,105.66-324.44
			c106.66-90.91,257.16-100.92,372.52-34.02c118.34,68.64,165.8,191.24,162.54,282.49c-17.96,0-35.94,0-54.09,0
			c-3.38-92.71-40.68-167.72-116.53-221.54c-58.22-41.31-123.8-56.29-194.26-45.53C430.52,296.05,368.73,335.55,324.74,401
			c-44.03,65.5-55.77,137.53-38.07,215.04c-7.26,1.6-14.36,3.16-21.43,4.71c13.55,74.91,93.24,204.19,252.5,222.47
			c0.71,2.74,0.38,5.59,0.16,9.39c-63.61-7.04-119.52-31.06-167.57-72.97C302.22,737.66,270.72,685.32,254.87,622.86z"/>
		<path class="st4" d="M381.9,454.6c-6.15-3.7-12.09-7.27-17.99-10.81c33.73-63.95,122.86-127.23,233.05-102.03
			c111.95,25.61,169.44,128.72,165.6,208.76c-17.89,0-35.8,0-53.46,0c-7.45-81.59-48.04-136.26-129.04-155.19
			c-60.43-14.13-129.15,10.7-169.25,75.91c-6.46-3.69-12.94-7.39-20.46-11.69c-29.57,55.91-33.34,112.56-6.75,169.42
			c26.56,56.79,72.49,90.26,133.94,102.92c1.01,2.97,0.61,5.97,0.25,9.99C452.26,729,403.67,693.86,375.15,633.94
			C346.57,573.89,350.7,513.86,381.9,454.6z"/>
	</g>
	<g style="clip-path:url(#SVGID_00000176721510837345999850000016129529060244368046_);">
		<path class="st5" d="M552.4,705.91v38.38h-7.13v-32.4h-8.11v-5.98H552.4z"/>
		<path class="st5" d="M559.96,725.09c0-12.61,6.91-19.74,16.01-19.74c9.16,0,16.06,7.13,16.06,19.74
			c0,12.61-6.91,19.74-16.06,19.74C566.87,744.83,559.96,737.7,559.96,725.09z M584.85,725.09c0-9.27-3.62-13.54-8.88-13.54
			c-5.21,0-8.83,4.28-8.83,13.54s3.62,13.54,8.83,13.54C581.23,738.64,584.85,734.36,584.85,725.09z"/>
		<path class="st5" d="M596.19,716.05c0-6.31,3.67-10.53,9.16-10.53s9.21,4.17,9.21,10.53c0,6.36-3.73,10.53-9.21,10.53
			S596.19,722.35,596.19,716.05z M610.06,716.05c0-4.28-1.75-6.69-4.71-6.69c-2.85,0-4.71,2.47-4.71,6.69
			c0,4.22,1.86,6.69,4.71,6.69C608.31,722.74,610.06,720.33,610.06,716.05z M628.38,705.91h5.37l-26.21,38.38h-5.37L628.38,705.91z
			 M621.36,734.14c0-6.3,3.67-10.53,9.16-10.53s9.21,4.22,9.21,10.53s-3.73,10.53-9.21,10.53S621.36,740.45,621.36,734.14z
			 M635.23,734.14c0-4.22-1.81-6.69-4.72-6.69s-4.71,2.41-4.71,6.69s1.81,6.69,4.71,6.69S635.23,738.36,635.23,734.14z"/>
	</g>
	<g style="clip-path:url(#SVGID_00000176721510837345999850000016129529060244368046_);">
		<path class="st6" d="M658.59,739.43l1.57-3.11c2.71,2.67,7.53,4.63,12.52,4.63c7.1,0,10.19-3,10.19-6.76
			c0-10.46-23.35-4.03-23.35-18.15c0-5.61,4.33-10.46,13.98-10.46c4.28,0,8.72,1.25,11.76,3.38l-1.35,3.21
			c-3.25-2.12-7.04-3.16-10.4-3.16c-6.94,0-10.02,3.11-10.02,6.92c0,10.46,23.35,4.14,23.35,18.04c0,5.61-4.44,10.41-14.14,10.41
			C666.99,744.39,661.4,742.37,658.59,739.43z"/>
		<path class="st6" d="M722.36,740.57v3.49h-26.82v-38.14h26.01v3.49h-22v13.57h19.61v3.43h-19.61v14.17H722.36z"/>
		<path class="st6" d="M758.61,740.57v3.49h-26.82v-38.14h26.01v3.49h-22v13.57h19.61v3.43H735.8v14.17H758.61z"/>
		<path class="st6" d="M768.04,705.92h15.44c12.14,0,20.32,7.85,20.32,19.07s-8.18,19.07-20.32,19.07h-15.44V705.92z M783.27,740.57
			c10.08,0,16.58-6.43,16.58-15.58s-6.5-15.58-16.58-15.58h-11.22v31.17H783.27z"/>
		<path class="st6" d="M852.9,744.06l-8.67-12.26c-0.98,0.11-1.95,0.16-3.03,0.16h-10.19v12.1H827v-38.14h14.2
			c9.65,0,15.5,4.9,15.5,13.08c0,5.99-3.14,10.19-8.67,11.99l9.27,13.08H852.9z M852.68,719c0-6.1-4.01-9.59-11.6-9.59h-10.08v19.13
			h10.08C848.67,728.53,852.68,724.99,852.68,719z"/>
		<path class="st6" d="M862.82,724.99c0-11.12,8.45-19.4,19.94-19.4c11.38,0,19.89,8.23,19.89,19.4s-8.51,19.4-19.89,19.4
			C871.27,744.39,862.82,736.11,862.82,724.99z M898.63,724.99c0-9.1-6.77-15.8-15.88-15.8c-9.16,0-15.98,6.7-15.98,15.8
			s6.83,15.8,15.98,15.8C891.86,740.79,898.63,734.09,898.63,724.99z"/>
		<path class="st6" d="M911.31,727.77v-21.85h4.01v21.69c0,9.05,4.23,13.19,11.6,13.19c7.42,0,11.65-4.14,11.65-13.19v-21.69h3.9
			v21.85c0,10.95-5.85,16.62-15.55,16.62C917.22,744.39,911.31,738.72,911.31,727.77z"/>
		<path class="st6" d="M986.25,705.92v38.14h-3.31l-24.38-30.95v30.95h-4.01v-38.14h3.31l24.44,30.95v-30.95H986.25z"/>
		<path class="st6" d="M998.61,705.92h15.44c12.14,0,20.32,7.85,20.32,19.07s-8.18,19.07-20.32,19.07h-15.44V705.92z
			 M1013.83,740.57c10.08,0,16.58-6.43,16.58-15.58s-6.5-15.58-16.58-15.58h-11.22v31.17H1013.83z"/>
		<path class="st6" d="M1081.35,733.87h-21.13l-4.55,10.19h-4.17l17.34-38.14h3.96l17.34,38.14h-4.23L1081.35,733.87z
			 M1079.89,730.6l-9.1-20.49l-9.1,20.49H1079.89z"/>
		<path class="st6" d="M1096.42,705.92h4.01v34.66h21.24v3.49h-25.25V705.92z"/>
		<path class="st6" d="M1128.33,705.92h4.01v34.66h21.24v3.49h-25.25V705.92z"/>
		<path class="st6" d="M1156.13,724.99c0-11.12,8.45-19.4,19.94-19.4c11.38,0,19.89,8.23,19.89,19.4s-8.51,19.4-19.89,19.4
			C1164.58,744.39,1156.13,736.11,1156.13,724.99z M1191.95,724.99c0-9.1-6.77-15.8-15.88-15.8c-9.16,0-15.98,6.7-15.98,15.8
			s6.83,15.8,15.98,15.8C1185.17,740.79,1191.95,734.09,1191.95,724.99z"/>
		<path class="st6" d="M1201.59,724.99c0-11.17,8.45-19.4,19.89-19.4c5.53,0,10.51,1.85,13.87,5.56l-2.55,2.56
			c-3.09-3.16-6.88-4.52-11.22-4.52c-9.16,0-16.04,6.76-16.04,15.8s6.88,15.8,16.04,15.8c4.33,0,8.13-1.36,11.22-4.58l2.55,2.56
			c-3.36,3.71-8.34,5.61-13.93,5.61C1210.05,744.39,1201.59,736.16,1201.59,724.99z"/>
		<path class="st6" d="M1266.73,733.87h-21.13l-4.55,10.19h-4.17l17.34-38.14h3.96l17.34,38.14h-4.23L1266.73,733.87z
			 M1265.26,730.6l-9.1-20.49l-9.1,20.49H1265.26z"/>
		<path class="st6" d="M1287.26,709.41h-13.33v-3.49h30.67v3.49h-13.33v34.66h-4.01V709.41z"/>
		<path class="st6" d="M1311,705.92h4.01v38.14H1311V705.92z"/>
		<path class="st6" d="M1324,724.99c0-11.12,8.45-19.4,19.94-19.4c11.38,0,19.89,8.23,19.89,19.4s-8.51,19.4-19.89,19.4
			C1332.46,744.39,1324,736.11,1324,724.99z M1359.82,724.99c0-9.1-6.77-15.8-15.88-15.8c-9.16,0-15.98,6.7-15.98,15.8
			s6.83,15.8,15.98,15.8C1353.04,740.79,1359.82,734.09,1359.82,724.99z"/>
		<path class="st6" d="M1404.52,705.92v38.14h-3.31l-24.38-30.95v30.95h-4.01v-38.14h3.31l24.44,30.95v-30.95H1404.52z"/>
	</g>
	<g style="clip-path:url(#SVGID_00000176721510837345999850000016129529060244368046_);">
		<path class="st6" d="M688.41,939.64c0,8.12-5.85,13.02-15.5,13.02h-10.19v12.04h-4.01v-38.14h14.2
			C682.56,926.57,688.41,931.47,688.41,939.64z M684.4,939.64c0-6.1-4.01-9.59-11.6-9.59h-10.08v19.07h10.08
			C680.39,949.12,684.4,945.64,684.4,939.64z"/>
		<path class="st6" d="M718.97,954.52h-21.13l-4.55,10.19h-4.17l17.34-38.14h3.96l17.34,38.14h-4.23L718.97,954.52z M717.51,951.25
			l-9.1-20.49l-9.1,20.49H717.51z"/>
		<path class="st6" d="M759.94,964.71l-8.67-12.26c-0.98,0.11-1.95,0.16-3.03,0.16h-10.19v12.1h-4.01v-38.14h14.2
			c9.65,0,15.5,4.9,15.5,13.08c0,5.99-3.14,10.19-8.67,11.99l9.27,13.08H759.94z M759.72,939.64c0-6.1-4.01-9.59-11.6-9.59h-10.08
			v19.13h10.08C755.71,949.18,759.72,945.64,759.72,939.64z"/>
		<path class="st6" d="M780.04,930.05h-13.33v-3.49h30.67v3.49h-13.33v34.66h-4.01V930.05z"/>
		<path class="st6" d="M835.47,926.57v38.14h-3.31l-24.38-30.95v30.95h-4.01v-38.14h3.31l24.44,30.95v-30.95H835.47z"/>
		<path class="st6" d="M874.65,961.22v3.49h-26.82v-38.14h26.01v3.49h-22v13.57h19.61v3.43h-19.61v14.17H874.65z"/>
		<path class="st6" d="M909.98,964.71l-8.67-12.26c-0.98,0.11-1.95,0.16-3.03,0.16h-10.19v12.1h-4.01v-38.14h14.2
			c9.65,0,15.5,4.9,15.5,13.08c0,5.99-3.14,10.19-8.67,11.99l9.27,13.08H909.98z M909.76,939.64c0-6.1-4.01-9.59-11.6-9.59h-10.08
			v19.13h10.08C905.75,949.18,909.76,945.64,909.76,939.64z"/>
		<path class="st6" d="M919.63,960.08l1.57-3.11c2.71,2.67,7.53,4.63,12.52,4.63c7.1,0,10.19-3,10.19-6.76
			c0-10.46-23.35-4.03-23.35-18.15c0-5.61,4.33-10.46,13.98-10.46c4.28,0,8.72,1.25,11.76,3.38l-1.35,3.21
			c-3.25-2.12-7.04-3.16-10.4-3.16c-6.94,0-10.02,3.11-10.02,6.92c0,10.46,23.35,4.14,23.35,18.04c0,5.61-4.44,10.41-14.14,10.41
			C928.03,965.04,922.44,963.02,919.63,960.08z"/>
		<path class="st6" d="M988.28,926.57v38.14h-3.96v-17.6h-23.73v17.6h-4.01v-38.14h4.01v17h23.73v-17H988.28z"/>
		<path class="st6" d="M1000.64,926.57h4.01v38.14h-4.01V926.57z"/>
		<path class="st6" d="M1046.69,939.64c0,8.12-5.85,13.02-15.5,13.02h-10.19v12.04H1017v-38.14h14.2
			C1040.84,926.57,1046.69,931.47,1046.69,939.64z M1042.68,939.64c0-6.1-4.01-9.59-11.6-9.59h-10.08v19.07h10.08
			C1038.67,949.12,1042.68,945.64,1042.68,939.64z"/>
		<path class="st6" d="M1052.28,960.08l1.57-3.11c2.71,2.67,7.53,4.63,12.52,4.63c7.1,0,10.19-3,10.19-6.76
			c0-10.46-23.35-4.03-23.35-18.15c0-5.61,4.33-10.46,13.98-10.46c4.28,0,8.72,1.25,11.76,3.38l-1.35,3.21
			c-3.25-2.12-7.04-3.16-10.4-3.16c-6.94,0-10.02,3.11-10.02,6.92c0,10.46,23.35,4.14,23.35,18.04c0,5.61-4.44,10.41-14.14,10.41
			C1060.67,965.04,1055.09,963.02,1052.28,960.08z"/>
		<path class="st6" d="M1127.21,954.52h-21.13l-4.55,10.19h-4.17l17.34-38.14h3.96l17.34,38.14h-4.23L1127.21,954.52z
			 M1125.75,951.25l-9.1-20.49l-9.1,20.49H1125.75z"/>
		<path class="st6" d="M1173.98,926.57v38.14h-3.31l-24.38-30.95v30.95h-4.01v-38.14h3.31l24.44,30.95v-30.95H1173.98z"/>
		<path class="st6" d="M1186.33,926.57h15.44c12.14,0,20.32,7.85,20.32,19.07s-8.18,19.07-20.32,19.07h-15.44V926.57z
			 M1201.56,961.22c10.08,0,16.58-6.43,16.58-15.58s-6.5-15.58-16.58-15.58h-11.22v31.17H1201.56z"/>
		<path class="st6" d="M1241.93,945.64c0-11.17,8.45-19.4,19.89-19.4c5.53,0,10.51,1.85,13.87,5.56l-2.55,2.56
			c-3.09-3.16-6.88-4.52-11.22-4.52c-9.16,0-16.04,6.76-16.04,15.8s6.88,15.8,16.04,15.8c4.33,0,8.13-1.36,11.22-4.58l2.55,2.56
			c-3.36,3.71-8.34,5.61-13.93,5.61C1250.38,965.04,1241.93,956.81,1241.93,945.64z"/>
		<path class="st6" d="M1280.08,945.64c0-11.12,8.45-19.4,19.94-19.4c11.38,0,19.89,8.23,19.89,19.4s-8.51,19.4-19.89,19.4
			C1288.53,965.04,1280.08,956.75,1280.08,945.64z M1315.89,945.64c0-9.1-6.77-15.8-15.88-15.8c-9.16,0-15.98,6.7-15.98,15.8
			s6.83,15.8,15.98,15.8C1309.12,961.44,1315.89,954.74,1315.89,945.64z"/>
		<path class="st6" d="M1368.29,926.57v38.14h-3.85V934.2l-14.9,25.66h-1.9l-14.9-25.5v30.35h-3.85v-38.14h3.31l16.47,28.28
			l16.31-28.28H1368.29z"/>
		<path class="st6" d="M1420.04,926.57v38.14h-3.85V934.2l-14.9,25.66h-1.9l-14.9-25.5v30.35h-3.85v-38.14h3.31l16.47,28.28
			l16.31-28.28H1420.04z"/>
		<path class="st6" d="M1432.07,948.42v-21.85h4.01v21.69c0,9.05,4.23,13.19,11.6,13.19c7.42,0,11.65-4.14,11.65-13.19v-21.69h3.9
			v21.85c0,10.95-5.85,16.62-15.55,16.62S1432.07,959.37,1432.07,948.42z"/>
		<path class="st6" d="M1507.01,926.57v38.14h-3.31l-24.38-30.95v30.95h-4.01v-38.14h3.31l24.44,30.95v-30.95H1507.01z"/>
		<path class="st6" d="M1519.37,926.57h4.01v38.14h-4.01V926.57z"/>
		<path class="st6" d="M1543.1,930.05h-13.33v-3.49h30.67v3.49h-13.33v34.66h-4.01V930.05z"/>
		<path class="st6" d="M1579.57,951.52v13.19h-3.96v-13.19l-15.17-24.96h4.28l13,21.41l13-21.41h4.01L1579.57,951.52z"/>
	</g>
	<g style="clip-path:url(#SVGID_00000176721510837345999850000016129529060244368046_);">
		<path class="st6" d="M688.41,831.07c0,8.12-5.85,13.02-15.5,13.02h-10.19v12.04h-4.01V818h14.2
			C682.56,818,688.41,822.9,688.41,831.07z M684.4,831.07c0-6.1-4.01-9.59-11.6-9.59h-10.08v19.07h10.08
			C680.39,840.55,684.4,837.07,684.4,831.07z"/>
		<path class="st6" d="M722.98,856.14l-8.67-12.26c-0.98,0.11-1.95,0.16-3.03,0.16h-10.19v12.1h-4.01V818h14.2
			c9.65,0,15.5,4.9,15.5,13.08c0,5.99-3.14,10.19-8.67,11.99l9.27,13.08H722.98z M722.77,831.07c0-6.1-4.01-9.59-11.6-9.59h-10.08
			v19.13h10.08C718.76,840.61,722.77,837.07,722.77,831.07z"/>
		<path class="st6" d="M732.9,837.07c0-11.12,8.45-19.4,19.94-19.4c11.38,0,19.89,8.23,19.89,19.4s-8.51,19.4-19.89,19.4
			C741.35,856.47,732.9,848.18,732.9,837.07z M768.72,837.07c0-9.1-6.77-15.8-15.88-15.8c-9.16,0-15.98,6.7-15.98,15.8
			s6.83,15.8,15.98,15.8C761.94,852.87,768.72,846.17,768.72,837.07z"/>
		<path class="st6" d="M781.72,818h15.44c12.14,0,20.32,7.85,20.32,19.07s-8.18,19.07-20.32,19.07h-15.44V818z M796.95,852.65
			c10.08,0,16.58-6.43,16.58-15.58s-6.5-15.58-16.58-15.58h-11.22v31.17H796.95z"/>
		<path class="st6" d="M826.16,839.85V818h4.01v21.69c0,9.05,4.23,13.19,11.6,13.19c7.42,0,11.65-4.14,11.65-13.19V818h3.9v21.85
			c0,10.95-5.85,16.62-15.55,16.62C832.06,856.47,826.16,850.8,826.16,839.85z"/>
		<path class="st6" d="M866.04,837.07c0-11.17,8.45-19.4,19.89-19.4c5.53,0,10.51,1.85,13.87,5.56l-2.55,2.56
			c-3.09-3.16-6.88-4.52-11.22-4.52c-9.16,0-16.04,6.76-16.04,15.8s6.88,15.8,16.04,15.8c4.33,0,8.13-1.36,11.22-4.58l2.55,2.56
			c-3.36,3.71-8.34,5.61-13.93,5.61C874.49,856.47,866.04,848.24,866.04,837.07z"/>
		<path class="st6" d="M915.24,821.48h-13.33V818h30.67v3.49h-13.33v34.66h-4.01V821.48z"/>
		<path class="st6" d="M938.97,818h4.01v38.14h-4.01V818z"/>
		<path class="st6" d="M951.98,837.07c0-11.12,8.45-19.4,19.94-19.4c11.38,0,19.89,8.23,19.89,19.4s-8.51,19.4-19.89,19.4
			C960.43,856.47,951.98,848.18,951.98,837.07z M987.79,837.07c0-9.1-6.77-15.8-15.88-15.8c-9.16,0-15.98,6.7-15.98,15.8
			s6.83,15.8,15.98,15.8C981.02,852.87,987.79,846.17,987.79,837.07z"/>
		<path class="st6" d="M1032.5,818v38.14h-3.31l-24.38-30.95v30.95h-4.01V818h3.31l24.44,30.95V818H1032.5z"/>
		<path class="st6" d="M1082.84,845.95h-21.13l-4.55,10.19h-4.17l17.34-38.14h3.96l17.34,38.14h-4.23L1082.84,845.95z
			 M1081.38,842.68l-9.1-20.49l-9.1,20.49H1081.38z"/>
		<path class="st6" d="M1129.6,818v38.14h-3.31l-24.38-30.95v30.95h-4.01V818h3.31l24.44,30.95V818H1129.6z"/>
		<path class="st6" d="M1141.96,818h15.44c12.14,0,20.32,7.85,20.32,19.07s-8.18,19.07-20.32,19.07h-15.44V818z M1157.18,852.65
			c10.08,0,16.58-6.43,16.58-15.58s-6.5-15.58-16.58-15.58h-11.22v31.17H1157.18z"/>
		<path class="st6" d="M1200.91,818h15.44c12.14,0,20.32,7.85,20.32,19.07s-8.18,19.07-20.32,19.07h-15.44V818z M1216.14,852.65
			c10.08,0,16.58-6.43,16.58-15.58s-6.5-15.58-16.58-15.58h-11.22v31.17H1216.14z"/>
		<path class="st6" d="M1272.49,852.65v3.49h-26.82V818h26.01v3.49h-22v13.57h19.61v3.43h-19.61v14.17H1272.49z"/>
		<path class="st6" d="M1312.92,818l-16.8,38.14h-3.96l-16.8-38.14h4.33l14.52,33.13l14.63-33.13H1312.92z"/>
		<path class="st6" d="M1345.21,852.65v3.49h-26.82V818h26.01v3.49h-22v13.57h19.61v3.43h-19.61v14.17H1345.21z"/>
		<path class="st6" d="M1354.64,818h4.01v34.66h21.24v3.49h-25.25V818z"/>
		<path class="st6" d="M1382.44,837.07c0-11.12,8.45-19.4,19.94-19.4c11.38,0,19.89,8.23,19.89,19.4s-8.51,19.4-19.89,19.4
			C1390.89,856.47,1382.44,848.18,1382.44,837.07z M1418.25,837.07c0-9.1-6.77-15.8-15.88-15.8c-9.16,0-15.98,6.7-15.98,15.8
			s6.83,15.8,15.98,15.8C1411.48,852.87,1418.25,846.17,1418.25,837.07z"/>
		<path class="st6" d="M1460.96,831.07c0,8.12-5.85,13.02-15.5,13.02h-10.19v12.04h-4.01V818h14.2
			C1455.1,818,1460.96,822.9,1460.96,831.07z M1456.95,831.07c0-6.1-4.01-9.59-11.6-9.59h-10.08v19.07h10.08
			C1452.94,840.55,1456.95,837.07,1456.95,831.07z"/>
		<path class="st6" d="M1509.02,818v38.14h-3.85v-30.51l-14.9,25.66h-1.9l-14.9-25.5v30.35h-3.85V818h3.31l16.47,28.28l16.31-28.28
			H1509.02z"/>
		<path class="st6" d="M1548.2,852.65v3.49h-26.82V818h26.01v3.49h-22v13.57H1545v3.43h-19.61v14.17H1548.2z"/>
		<path class="st6" d="M1589.32,818v38.14h-3.31l-24.38-30.95v30.95h-4.01V818h3.31l24.44,30.95V818H1589.32z"/>
		<path class="st6" d="M1609.05,821.48h-13.33V818h30.67v3.49h-13.33v34.66h-4.01V821.48z"/>
	</g>
	<g style="clip-path:url(#SVGID_00000176721510837345999850000016129529060244368046_);">
		<path class="st6" d="M691.91,1049.39c0,8.12-5.85,13.02-15.5,13.02h-10.19v12.04h-4.01v-38.14h14.2
			C686.06,1036.31,691.91,1041.22,691.91,1049.39z M687.9,1049.39c0-6.1-4.01-9.59-11.6-9.59h-10.08v19.07h10.08
			C683.89,1058.87,687.9,1055.38,687.9,1049.39z"/>
		<path class="st6" d="M726.48,1074.46l-8.67-12.26c-0.98,0.11-1.95,0.16-3.03,0.16h-10.19v12.1h-4.01v-38.14h14.2
			c9.65,0,15.5,4.9,15.5,13.08c0,5.99-3.14,10.19-8.67,11.99l9.27,13.08H726.48z M726.27,1049.39c0-6.1-4.01-9.59-11.6-9.59h-10.08
			v19.13h10.08C722.26,1058.93,726.27,1055.38,726.27,1049.39z"/>
		<path class="st6" d="M739.76,1036.31h4.01v38.14h-4.01V1036.31z"/>
		<path class="st6" d="M787.23,1036.31l-16.8,38.14h-3.96l-16.8-38.14h4.33l14.52,33.13l14.63-33.13H787.23z"/>
		<path class="st6" d="M815.35,1064.27h-21.13l-4.55,10.19h-4.17l17.34-38.14h3.96l17.34,38.14h-4.23L815.35,1064.27z M813.89,1061
			l-9.1-20.49l-9.1,20.49H813.89z"/>
		<path class="st6" d="M835.89,1039.8h-13.33v-3.49h30.67v3.49H839.9v34.66h-4.01V1039.8z"/>
		<path class="st6" d="M886.44,1070.97v3.49h-26.82v-38.14h26.01v3.49h-22v13.57h19.61v3.43h-19.61v14.17H886.44z"/>
		<path class="st6" d="M933.86,1064.27h-21.13l-4.55,10.19H904l17.34-38.14h3.96l17.34,38.14h-4.23L933.86,1064.27z M932.39,1061
			l-9.1-20.49l-9.1,20.49H932.39z"/>
		<path class="st6" d="M980.62,1036.31v38.14h-3.31l-24.38-30.95v30.95h-4.01v-38.14h3.31l24.44,30.95v-30.95H980.62z"/>
		<path class="st6" d="M992.98,1036.31h15.44c12.14,0,20.32,7.85,20.32,19.07s-8.18,19.07-20.32,19.07h-15.44V1036.31z
			 M1008.2,1070.97c10.08,0,16.58-6.43,16.58-15.58s-6.5-15.58-16.58-15.58h-11.22v31.17H1008.2z"/>
		<path class="st6" d="M1081.62,1049.39c0,8.12-5.85,13.02-15.5,13.02h-10.19v12.04h-4.01v-38.14h14.2
			C1075.77,1036.31,1081.62,1041.22,1081.62,1049.39z M1077.62,1049.39c0-6.1-4.01-9.59-11.6-9.59h-10.08v19.07h10.08
			C1073.61,1058.87,1077.62,1055.38,1077.62,1049.39z"/>
		<path class="st6" d="M1090.24,1058.16v-21.85h4.01V1058c0,9.05,4.23,13.19,11.6,13.19c7.42,0,11.65-4.14,11.65-13.19v-21.69h3.9
			v21.85c0,10.95-5.85,16.62-15.55,16.62S1090.24,1069.12,1090.24,1058.16z"/>
		<path class="st6" d="M1165.18,1064.27c0,6.48-4.77,10.19-14.25,10.19h-17.45v-38.14h16.36c8.45,0,13.33,3.6,13.33,9.81
			c0,4.36-2.33,7.25-5.8,8.66C1162.25,1055.87,1165.18,1059.09,1165.18,1064.27z M1137.49,1039.64v13.84h12.08
			c6.07,0,9.59-2.34,9.59-6.92s-3.52-6.92-9.59-6.92H1137.49z M1161.17,1063.94c0-4.96-3.63-7.14-10.29-7.14h-13.38v14.33h13.38
			C1157.54,1071.13,1161.17,1068.95,1161.17,1063.94z"/>
		<path class="st6" d="M1174.34,1036.31h4.01v34.66h21.24v3.49h-25.25V1036.31z"/>
		<path class="st6" d="M1206.26,1036.31h4.01v38.14h-4.01V1036.31z"/>
		<path class="st6" d="M1219.26,1055.38c0-11.17,8.45-19.4,19.89-19.4c5.53,0,10.51,1.85,13.87,5.56l-2.55,2.56
			c-3.09-3.16-6.88-4.52-11.22-4.52c-9.16,0-16.04,6.76-16.04,15.8s6.88,15.8,16.04,15.8c4.33,0,8.13-1.36,11.22-4.58l2.55,2.56
			c-3.36,3.71-8.34,5.61-13.93,5.61C1227.71,1074.78,1219.26,1066.55,1219.26,1055.38z"/>
		<path class="st6" d="M1283.15,1039.8h-13.33v-3.49h30.67v3.49h-13.33v34.66h-4.01V1039.8z"/>
		<path class="st6" d="M1302.98,1055.38c0-11.12,8.45-19.4,19.94-19.4c11.38,0,19.89,8.23,19.89,19.4s-8.51,19.4-19.89,19.4
			C1311.43,1074.78,1302.98,1066.5,1302.98,1055.38z M1338.8,1055.38c0-9.1-6.77-15.8-15.88-15.8c-9.16,0-15.98,6.7-15.98,15.8
			s6.83,15.8,15.98,15.8C1332.02,1071.19,1338.8,1064.48,1338.8,1055.38z"/>
		<path class="st6" d="M1363.56,1056.53l-7.75,7.9v10.03h-4.01v-38.14h4.01v23.05l22.27-23.05h4.61l-16.42,17.27l17.55,20.87h-4.77
			L1363.56,1056.53z"/>
		<path class="st6" d="M1417.15,1070.97v3.49h-26.82v-38.14h26.01v3.49h-22v13.57h19.61v3.43h-19.61v14.17H1417.15z"/>
		<path class="st6" d="M1458.28,1036.31v38.14h-3.31l-24.38-30.95v30.95h-4.01v-38.14h3.31l24.44,30.95v-30.95H1458.28z"/>
		<path class="st6" d="M1481.2,1069.82l1.57-3.11c2.71,2.67,7.53,4.63,12.52,4.63c7.1,0,10.19-3,10.19-6.76
			c0-10.46-23.35-4.03-23.35-18.15c0-5.61,4.33-10.46,13.98-10.46c4.28,0,8.72,1.25,11.76,3.38l-1.35,3.21
			c-3.25-2.12-7.04-3.16-10.4-3.16c-6.94,0-10.02,3.11-10.02,6.92c0,10.46,23.35,4.14,23.35,18.04c0,5.61-4.44,10.41-14.14,10.41
			C1489.6,1074.78,1484.02,1072.77,1481.2,1069.82z"/>
		<path class="st6" d="M1541.94,1064.27h-21.13l-4.55,10.19h-4.17l17.34-38.14h3.96l17.34,38.14h-4.23L1541.94,1064.27z
			 M1540.48,1061l-9.1-20.49l-9.1,20.49H1540.48z"/>
		<path class="st6" d="M1557.01,1036.31h4.01v34.66h21.24v3.49h-25.25V1036.31z"/>
		<path class="st6" d="M1615.75,1070.97v3.49h-26.82v-38.14h26.01v3.49h-22v13.57h19.61v3.43h-19.61v14.17H1615.75z"/>
	</g>
	<g style="clip-path:url(#SVGID_00000176721510837345999850000016129529060244368046_);">
		<path class="st7" d="M560.9,848.21v6.03h-28.29v-4.77L547.85,835c3.73-3.56,4.39-5.81,4.39-7.95c0-3.51-2.41-5.54-7.13-5.54
			c-3.73,0-6.85,1.26-8.99,4l-4.99-3.84c2.96-4,8.28-6.36,14.58-6.36c8.33,0,13.71,4.22,13.71,11.02c0,3.73-1.04,7.13-6.36,12.12
			l-10.25,9.76H560.9z"/>
		<path class="st7" d="M592.86,842.46c0,6.74-4.88,12.33-15.19,12.33c-5.43,0-10.91-1.64-14.42-4.44l3.02-5.54
			c2.8,2.3,6.96,3.78,11.29,3.78c5.1,0,8.11-2.25,8.11-5.87c0-3.67-2.36-5.98-10.31-5.98h-9.27l1.97-20.89h22.53v5.98h-16.5
			l-0.82,8.88h3.67C588.31,830.72,592.86,835.66,592.86,842.46z"/>
		<path class="st7" d="M595.76,826.01c0-6.31,3.67-10.53,9.16-10.53s9.21,4.17,9.21,10.53c0,6.36-3.73,10.53-9.21,10.53
			S595.76,832.31,595.76,826.01z M609.63,826.01c0-4.28-1.75-6.69-4.71-6.69c-2.85,0-4.71,2.47-4.71,6.69
			c0,4.22,1.86,6.69,4.71,6.69C607.88,832.7,609.63,830.29,609.63,826.01z M627.94,815.87h5.37l-26.21,38.38h-5.37L627.94,815.87z
			 M620.93,844.1c0-6.3,3.67-10.53,9.16-10.53s9.21,4.22,9.21,10.53s-3.73,10.53-9.21,10.53S620.93,850.41,620.93,844.1z
			 M634.8,844.1c0-4.22-1.81-6.69-4.72-6.69s-4.71,2.41-4.71,6.69s1.81,6.69,4.71,6.69S634.8,848.32,634.8,844.1z"/>
	</g>
	<g style="clip-path:url(#SVGID_00000176721510837345999850000016129529060244368046_);">
		<path class="st8" d="M547.44,924.7v38.38h-7.13v-32.4h-8.11v-5.98H547.44z"/>
		<path class="st8" d="M582.91,951.29c0,6.74-4.88,12.33-15.19,12.33c-5.43,0-10.91-1.64-14.42-4.44l3.02-5.54
			c2.8,2.3,6.96,3.78,11.29,3.78c5.1,0,8.11-2.25,8.11-5.87c0-3.67-2.36-5.98-10.31-5.98h-9.27l1.97-20.89h22.53v5.98h-16.5
			l-0.82,8.88h3.67C578.36,939.56,582.91,944.49,582.91,951.29z"/>
		<path class="st8" d="M585.81,934.84c0-6.31,3.67-10.53,9.16-10.53s9.21,4.17,9.21,10.53c0,6.36-3.73,10.53-9.21,10.53
			S585.81,941.15,585.81,934.84z M599.69,934.84c0-4.28-1.75-6.69-4.71-6.69c-2.85,0-4.71,2.47-4.71,6.69
			c0,4.22,1.86,6.69,4.71,6.69C597.93,941.53,599.69,939.12,599.69,934.84z M618,924.7h5.37l-26.21,38.38h-5.37L618,924.7z
			 M610.98,952.93c0-6.3,3.67-10.53,9.16-10.53s9.21,4.22,9.21,10.53s-3.73,10.53-9.21,10.53S610.98,959.24,610.98,952.93z
			 M624.85,952.93c0-4.22-1.81-6.69-4.72-6.69s-4.71,2.41-4.71,6.69s1.81,6.69,4.71,6.69S624.85,957.16,624.85,952.93z"/>
	</g>
	<g style="clip-path:url(#SVGID_00000176721510837345999850000016129529060244368046_);">
		<path class="st9" d="M562.36,1062.26c0,6.74-4.88,12.33-15.19,12.33c-5.43,0-10.91-1.64-14.42-4.44l3.02-5.54
			c2.8,2.3,6.96,3.78,11.29,3.78c5.1,0,8.11-2.25,8.11-5.87c0-3.67-2.36-5.98-10.31-5.98h-9.27l1.97-20.89h22.53v5.98h-16.5
			l-0.82,8.88h3.67C557.81,1050.53,562.36,1055.46,562.36,1062.26z"/>
		<path class="st9" d="M566.41,1054.86c0-12.61,6.91-19.74,16.01-19.74c9.16,0,16.06,7.13,16.06,19.74
			c0,12.61-6.91,19.74-16.06,19.74C573.32,1074.59,566.41,1067.47,566.41,1054.86z M591.3,1054.86c0-9.27-3.62-13.54-8.88-13.54
			c-5.21,0-8.83,4.28-8.83,13.54s3.62,13.54,8.83,13.54C587.68,1068.4,591.3,1064.12,591.3,1054.86z"/>
		<path class="st9" d="M602.64,1045.81c0-6.31,3.67-10.53,9.16-10.53s9.21,4.17,9.21,10.53c0,6.36-3.73,10.53-9.21,10.53
			S602.64,1052.12,602.64,1045.81z M616.51,1045.81c0-4.28-1.75-6.69-4.71-6.69c-2.85,0-4.71,2.47-4.71,6.69
			c0,4.22,1.86,6.69,4.71,6.69C614.76,1052.5,616.51,1050.09,616.51,1045.81z M634.82,1035.67h5.37l-26.21,38.38h-5.37
			L634.82,1035.67z M627.81,1063.9c0-6.3,3.67-10.53,9.16-10.53s9.21,4.22,9.21,10.53s-3.73,10.53-9.21,10.53
			S627.81,1070.21,627.81,1063.9z M641.68,1063.9c0-4.22-1.81-6.69-4.72-6.69s-4.71,2.41-4.71,6.69s1.81,6.69,4.71,6.69
			S641.68,1068.12,641.68,1063.9z"/>
	</g>
</g>
</svg>
