<svg id="Layer_1" data-name="Layer 1" xmlns="http://www.w3.org/2000/svg" viewBox="0 0 410.88 142.85"><defs><style>.cls-1{fill:#231f20;}.cls-2{fill:none;stroke:#231f20;stroke-linecap:round;stroke-linejoin:round;stroke-width:2px;}</style></defs><path class="cls-1" d="M178.76,59.64,171.91,82h-1.62l3.25-10.66H158.66L155.4,82h-1.62l6.85-22.4h1.62l-3.15,10.3H174l3.15-10.3Z"/><path class="cls-1" d="M195.48,80.56,195,82H179.67l6.85-22.4H201.4L201,61.11H187.69L185,69.94h11.86l-.44,1.44H184.55l-2.81,9.18Z"/><path class="cls-1" d="M207.8,59.64h8.81c7.06,0,10.4,4.67,8.4,11.2A16,16,0,0,1,209.76,82H201Zm2.28,20.92a13.79,13.79,0,0,0,13.31-9.72c1.74-5.7-1.06-9.73-7.36-9.73H209L203,80.56Z"/><path class="cls-1" d="M246.52,70.93h1.56l-2.57,8.39a15,15,0,0,1-8.83,2.88c-6.71,0-10.16-4.84-8.17-11.36a16.33,16.33,0,0,1,15.15-11.36c3.21,0,5.73,1,7.08,3.07l-1.36,1.09C248,61.72,245.93,61,243.23,61a14.19,14.19,0,0,0-13.09,9.86c-1.72,5.6,1.28,9.85,7.07,9.85a12.37,12.37,0,0,0,6.95-2Z"/><path class="cls-1" d="M267.62,80.56,267.17,82H251.81l6.84-22.4h14.89l-.45,1.47H259.83l-2.7,8.83H269l-.44,1.44H256.69l-2.81,9.18Z"/><path class="cls-1" d="M293,76.12c-1.16,3.77-4.55,5.92-10,5.92h-9.92l6.84-22.4h9.29c4.77,0,7,2,5.91,5.73a7.65,7.65,0,0,1-5.28,5.12C292.81,71.09,294,73,293,76.12Zm-11.9-15.07L278.4,70H286c3.85,0,6.53-1.5,7.44-4.47s-.86-4.45-4.71-4.45ZM291.44,76c1-3.2-.91-4.61-5.17-4.61H278l-2.83,9.25h8.3C287.7,80.63,290.45,79.22,291.44,76Z"/><path class="cls-1" d="M298.3,70.84a16.31,16.31,0,0,1,15.05-11.36c6.61,0,10.1,4.83,8.1,11.36A16.32,16.32,0,0,1,306.4,82.2C299.76,82.2,296.31,77.33,298.3,70.84Zm21.5,0c1.73-5.66-1.25-9.86-6.91-9.86a14.1,14.1,0,0,0-13,9.86c-1.73,5.66,1.25,9.85,6.94,9.85A14.09,14.09,0,0,0,319.8,70.84Z"/><path class="cls-1" d="M339,75.73H326.13L321.37,82h-1.75l17.09-22.4h1.62L341.72,82H340Zm-.18-1.37L337,61.43l-9.78,12.93Z"/><path class="cls-1" d="M361.22,82l-3-7.49a16.08,16.08,0,0,1-2.21.16h-6.36L347.39,82h-1.62l6.84-22.4h8c5.59,0,8.1,2.82,6.66,7.55a10.26,10.26,0,0,1-7.36,7L363.07,82Zm-4.79-8.77c4.77,0,8-2.24,9.17-6.08s-.68-6.08-5.45-6.08h-6.37l-3.71,12.16Z"/><path class="cls-1" d="M375.51,59.64h8.81c7.06,0,10.41,4.67,8.41,11.2A16,16,0,0,1,377.48,82h-8.81Zm2.29,20.92a13.79,13.79,0,0,0,13.31-9.72c1.74-5.7-1.07-9.73-7.37-9.73h-7.06l-5.94,19.45Z"/><polygon class="cls-2" points="68.13 127.53 128.44 115.43 149.12 55.44 102.8 15.32 88.02 62.49 106.87 58.52 111.18 45.44 129.06 60.97 115.28 100.48 92.85 105.35 102.59 74.42 83.47 78.45 68.13 127.53"/><polygon class="cls-2" points="94.76 14.94 34.31 26.35 12.94 86.09 58.8 126.74 74.11 79.74 55.23 83.5 50.77 96.53 33.07 80.79 47.3 41.45 69.78 36.84 59.68 67.65 78.85 63.84 94.76 14.94"/></svg>