<svg id="Layer_1" data-name="Layer 1" xmlns="http://www.w3.org/2000/svg" viewBox="0 0 381.94 142.85"><defs><style>.cls-1{fill:#231f20;}.cls-2{fill:none;stroke:#231f20;stroke-linecap:round;stroke-linejoin:round;stroke-width:2px;}</style></defs><path class="cls-1" d="M174.91,55.88h-14l-3.08,6.85h-1.9L167,38.39h1.76l11.13,24.34H178Zm-.65-1.49-6.37-14.06-6.32,14.06Z"/><path class="cls-1" d="M184.32,38.39h9.58c7.67,0,12.86,5.08,12.86,12.17s-5.19,12.17-12.86,12.17h-9.58Zm9.44,22.74c6.85,0,11.24-4.38,11.24-10.57S200.61,40,193.76,40h-7.67V61.13Z"/><path class="cls-1" d="M231.49,38.39,220.7,62.73h-1.76L208.15,38.39h1.94l9.78,22,9.78-22Z"/><path class="cls-1" d="M249.64,55.88h-14l-3.08,6.85h-1.9l11.13-24.34h1.76l11.13,24.34h-1.9ZM249,54.39l-6.36-14.06L236.3,54.39Z"/><path class="cls-1" d="M278.76,38.39V62.73h-1.45l-16.5-21.14V62.73h-1.76V38.39h1.49L277,59.53V38.39Z"/><path class="cls-1" d="M284.88,50.56a12.13,12.13,0,0,1,12.55-12.35A11.5,11.5,0,0,1,306,41.59l-1.1,1.14a10.11,10.11,0,0,0-7.44-2.88,10.71,10.71,0,1,0,0,21.42,10.15,10.15,0,0,0,7.44-2.92L306,59.5a11.52,11.52,0,0,1-8.61,3.41A12.13,12.13,0,0,1,284.88,50.56Z"/><path class="cls-1" d="M328.66,61.13v1.6H312V38.39h16.18V40H313.72v9.6h12.9v1.56h-12.9v10Z"/><path class="cls-1" d="M157.63,92.29a12.13,12.13,0,0,1,12.55-12.35,11.48,11.48,0,0,1,8.6,3.38l-1.1,1.15a10.08,10.08,0,0,0-7.43-2.89,10.71,10.71,0,1,0,0,21.42,10.14,10.14,0,0,0,7.43-2.92l1.1,1.15a11.5,11.5,0,0,1-8.6,3.41A12.12,12.12,0,0,1,157.63,92.29Z"/><path class="cls-1" d="M201.51,104.46l-5.78-8.14a16.11,16.11,0,0,1-2.35.18h-6.91v8H184.7V80.12h8.68c6.09,0,9.75,3.06,9.75,8.21a7.45,7.45,0,0,1-5.67,7.61l6,8.52Zm-8.13-9.53c5.19,0,8-2.43,8-6.6s-2.76-6.61-8-6.61h-6.91V94.93Z"/><path class="cls-1" d="M216.72,96.08v8.38H215V96.08l-9.75-16h1.94l8.74,14.33,8.75-14.33h1.83Z"/><path class="cls-1" d="M248.71,88.33c0,5.11-3.67,8.17-9.75,8.17H232v8h-1.76V80.12H239C245,80.12,248.71,83.18,248.71,88.33Zm-1.8,0c0-4.21-2.77-6.61-7.95-6.61H232V94.9H239C244.14,94.9,246.91,92.5,246.91,88.33Z"/><path class="cls-1" d="M258.46,81.72h-8.71v-1.6h19.19v1.6h-8.71v22.74h-1.77Z"/><path class="cls-1" d="M270.64,92.29a12.15,12.15,0,0,1,12.58-12.35c7.19,0,12.59,5.26,12.59,12.35s-5.4,12.35-12.59,12.35A12.15,12.15,0,0,1,270.64,92.29Zm23.37,0A10.81,10.81,0,1,0,283.22,103,10.48,10.48,0,0,0,294,92.29Z"/><path class="cls-1" d="M330.53,80.12v24.34h-1.46L312.58,83.32v21.14h-1.76V80.12h1.49l16.45,21.14V80.12Z"/><path class="cls-1" d="M340.73,81.72v10.4h12.9v1.6h-12.9v10.74H339V80.12h16.18v1.6Z"/><path class="cls-1" d="M365.6,81.72h-8.72v-1.6h19.19v1.6h-8.71v22.74H365.6Z"/><path class="cls-2" d="M18.74,65.15s2-12,7.63-16.93,8.34-5.43,12.3-5.53A11.4,11.4,0,0,1,48.5,48L62.87,70.81a3.38,3.38,0,0,0,5.72,0L83,48.15a10.53,10.53,0,0,1,8.89-4.88H92a10.67,10.67,0,0,1,8.92,4.82l20.66,31.46a10.89,10.89,0,0,1-1.62,14.09,10.67,10.67,0,0,1-16-2.1l-8-12.15a4.45,4.45,0,0,0-7.49.06L75,100.58l-.07.11a10.93,10.93,0,0,1-9.22,5h-.1a11,11,0,0,1-9.23-5.14L42.73,78.89c-1.51-2.4-4.49-2.86-7.12-1.77-9.69,4-13,.28-13,.28"/><path class="cls-2" d="M18.73,65.15l-.82-5.23a25.77,25.77,0,0,1,18.5-31.28L84.55,16.29A25.77,25.77,0,0,1,115.83,34.8l12.35,48.13a25.78,25.78,0,0,1-18.51,31.28L61.54,126.56a25.77,25.77,0,0,1-31.29-18.51L22.64,77.4h0"/></svg>