<svg id="Layer_1" data-name="Layer 1" xmlns="http://www.w3.org/2000/svg" viewBox="0 0 410.88 142.85"><defs><style>.cls-1{fill:#231f20;}.cls-2{fill:none;stroke:#231f20;stroke-linecap:round;stroke-linejoin:round;stroke-width:2px;}</style></defs><path class="cls-1" d="M173.78,56.08H160.09l-3,6.68h-1.86L166.09,39h1.72l10.86,23.74h-1.86Zm-.64-1.46-6.21-13.7-6.17,13.7Z"/><path class="cls-1" d="M183,39h9.34c7.48,0,12.54,4.95,12.54,11.87s-5.06,11.87-12.54,11.87H183Zm9.2,22.18c6.68,0,11-4.27,11-10.31s-4.28-10.31-11-10.31h-7.48V61.2Z"/><path class="cls-1" d="M229,39,218.44,62.76h-1.72L206.2,39h1.88l9.55,21.5L227.17,39Z"/><path class="cls-1" d="M246.66,56.08H233l-3,6.68h-1.85L239,39h1.72l10.85,23.74H249.7ZM246,54.62l-6.2-13.7-6.17,13.7Z"/><path class="cls-1" d="M275.06,39V62.76h-1.42L257.56,42.14V62.76h-1.72V39h1.45l16,20.62V39Z"/><path class="cls-1" d="M281,50.89a11.82,11.82,0,0,1,12.24-12,11.19,11.19,0,0,1,8.39,3.29l-1.08,1.12a9.81,9.81,0,0,0-7.25-2.82,10.45,10.45,0,1,0,0,20.9,9.87,9.87,0,0,0,7.25-2.85l1.08,1.12a11.25,11.25,0,0,1-8.39,3.32A11.82,11.82,0,0,1,281,50.89Z"/><path class="cls-1" d="M323.73,61.2v1.56H307.44V39h15.78v1.56H309.16v9.36h12.58v1.52H309.16V61.2Z"/><path class="cls-1" d="M156.92,91.59a11.82,11.82,0,0,1,12.24-12,11.21,11.21,0,0,1,8.4,3.29L176.48,84a9.82,9.82,0,0,0-7.25-2.82,10.45,10.45,0,1,0,0,20.89,9.88,9.88,0,0,0,7.25-2.84l1.08,1.11a11.24,11.24,0,0,1-8.4,3.33A11.82,11.82,0,0,1,156.92,91.59Z"/><path class="cls-1" d="M199.72,103.46l-5.63-7.94a17,17,0,0,1-2.3.17h-6.74v7.77h-1.72V79.72h8.46c5.94,0,9.51,3,9.51,8a7.27,7.27,0,0,1-5.53,7.43l5.9,8.31Zm-7.93-9.29c5.06,0,7.76-2.38,7.76-6.45s-2.7-6.44-7.76-6.44h-6.74V94.17Z"/><path class="cls-1" d="M214.56,95.28v8.18h-1.72V95.28l-9.51-15.56h1.89l8.53,14,8.53-14h1.79Z"/><path class="cls-1" d="M245.75,87.72c0,5-3.57,8-9.51,8H229.5v7.77h-1.72V79.72h8.46C242.18,79.72,245.75,82.7,245.75,87.72Zm-1.75,0c0-4.1-2.7-6.44-7.76-6.44H229.5V94.13h6.74C241.3,94.13,244,91.79,244,87.72Z"/><path class="cls-1" d="M255.27,81.28h-8.5V79.72h18.71v1.56H257v22.18h-1.72Z"/><path class="cls-1" d="M267.14,91.59c0-6.89,5.23-12,12.28-12s12.27,5.12,12.27,12-5.26,12-12.27,12S267.14,98.47,267.14,91.59Zm22.8,0A10.54,10.54,0,1,0,279.42,102,10.22,10.22,0,0,0,289.94,91.59Z"/><path class="cls-1" d="M324.3,87.72c0,5-3.57,8-9.5,8h-6.75v7.77h-1.72V79.72h8.47C320.73,79.72,324.3,82.7,324.3,87.72Zm-1.75,0c0-4.1-2.7-6.44-7.75-6.44h-6.75V94.13h6.75C319.85,94.13,322.55,91.79,322.55,87.72Z"/><path class="cls-1" d="M328.19,91.59c0-6.89,5.22-12,12.27-12s12.27,5.12,12.27,12-5.26,12-12.27,12A11.85,11.85,0,0,1,328.19,91.59Zm22.79,0A10.54,10.54,0,1,0,340.46,102,10.22,10.22,0,0,0,351,91.59Z"/><path class="cls-1" d="M356.45,91.59c0-6.89,5.23-12,12.28-12S381,84.67,381,91.59s-5.26,12-12.27,12S356.45,98.47,356.45,91.59Zm22.79,0A10.54,10.54,0,1,0,368.73,102,10.21,10.21,0,0,0,379.24,91.59Z"/><path class="cls-1" d="M387,79.72h1.72V101.9h13.59v1.56H387Z"/><polyline class="cls-2" points="57.49 102.93 80.19 115.92 117.95 93.21 117.95 49.64 80.19 26.93 40.85 49.83 40.85 108.14 40.85 108.62 27.53 100.99 27.53 42.37 80.47 11.55 131.27 42.11 131.27 100.74 80.47 131.3 57.49 118.15 57.49 102.93"/><polygon class="cls-2" points="57.49 84.44 57.49 58.64 80.79 45.08 103.15 58.53 103.15 84.32 80.79 97.78 57.49 84.44"/></svg>